<?xml version="1.0" encoding="UTF-8" standalone="no"?>
<!-- Created with Inkscape (http://www.inkscape.org/) -->

<svg
   version="1.1"
   id="svg1"
   width="254"
   height="230"
   viewBox="0 0 254 230"
   sodipodi:docname="logo.svg"
   inkscape:version="1.3 (0e150ed6c4, 2023-07-21)"
   xml:space="preserve"
   xmlns:inkscape="http://www.inkscape.org/namespaces/inkscape"
   xmlns:sodipodi="http://sodipodi.sourceforge.net/DTD/sodipodi-0.dtd"
   xmlns="http://www.w3.org/2000/svg"
   xmlns:svg="http://www.w3.org/2000/svg"><defs
     id="defs1" /><sodipodi:namedview
     id="namedview1"
     pagecolor="#ffffff"
     bordercolor="#000000"
     borderopacity="0.25"
     inkscape:showpageshadow="2"
     inkscape:pageopacity="0.0"
     inkscape:pagecheckerboard="0"
     inkscape:deskcolor="#d1d1d1"
     inkscape:zoom="1.9706759"
     inkscape:cx="-19.790164"
     inkscape:cy="121.53191"
     inkscape:window-width="1600"
     inkscape:window-height="837"
     inkscape:window-x="1432"
     inkscape:window-y="-8"
     inkscape:window-maximized="1"
     inkscape:current-layer="g11" /><g
     inkscape:groupmode="layer"
     inkscape:label="Image"
     id="g1"><path
       style="opacity:1;fill:#f9f9f9;fill-opacity:1;stroke:none;stroke-width:0.290256;stroke-linecap:square;stroke-linejoin:miter;stroke-dasharray:none;stroke-opacity:1"
       d=""
       id="path8" /><g
       id="g11"
       transform="translate(41.01563,-360.0502)"><g
         id="g6"
         transform="matrix(0.75427036,0,0,0.75427036,17.553569,109.55382)"><g
           id="g5"><path
             style="opacity:1;fill:#414141;fill-opacity:1;stroke:none;stroke-width:0.410484;stroke-linecap:square;stroke-linejoin:miter;stroke-dasharray:none;stroke-opacity:1"
             d="m 87.784221,618.06726 c -29.98155,-1.30888 -56.8405,-11.2768 -80.1152999,-29.73245 -3.40975,-2.70374 -6.39688,-4.9159 -6.63807,-4.9159 -0.24117999,0 -0.43851999,3.40684 -0.43851999,7.57074 0,8.42996 -0.93387,11.34369 -3.87210001,12.08113 -2.20782,0.55414 -5.11407,-0.49984 -5.71801,-2.07368 -0.25118,-0.65457 -0.45669,-8.42969 -0.45669,-17.27807 0,-15.13111 0.0854,-16.17331 1.43526,-17.52321 1.35038,-1.35037 2.3921,-1.43525 17.61452,-1.43525 H 25.774581 l 1.83018,1.83018 c 1.42186,1.42186 1.72509,2.26242 1.35913,3.76755 -0.91623,3.76831 -2.72727,4.41555 -12.40432,4.43311 -4.83502,0.009 -8.7909499,0.22113 -8.7909499,0.47189 0,0.99305 12.3384999,11.02613 13.5597399,11.02613 0.37028,0 0.78087,0.28037 0.91244,0.62306 0.39156,1.01989 13.45507,8.23608 19.25637,10.63707 12.33752,5.10616 11.71946,4.91087 27.26989,8.61627 7.86071,1.87307 37.963989,1.84992 46.287049,-0.0356 12.33032,-2.79332 14.50965,-3.48587 26.91108,-8.55169 5.40123,-2.20633 18.80845,-9.67516 19.25636,-10.72724 0.13157,-0.30903 0.54217,-0.56187 0.91245,-0.56187 3.58058,0 32.21808,-28.6375 32.21808,-32.21809 0,-0.37027 0.26991,-0.78087 0.59979,-0.91244 1.13131,-0.45119 7.90811,-12.66635 10.54712,-19.01114 5.12229,-12.31522 5.83878,-14.55326 8.6939,-27.1563 1.06456,-4.69921 1.30012,-8.93161 1.29809,-23.32293 -0.003,-18.76569 -0.43478,-22.26114 -4.41879,-35.74276 -1.63299,-5.52591 -1.67893,-6.08734 -0.62932,-7.68926 1.66474,-2.5407 3.57987,-3.37578 5.61515,-2.44845 2.85973,1.30298 3.9458,3.95178 6.74802,16.45769 4.69493,20.95279 3.98879,45.69278 -1.90489,66.73947 -1.49851,5.35127 -6.57944,17.929 -9.73091,24.08863 -20.40249,39.87729 -60.43455,67.41116 -104.72767,72.03124 -8.649139,0.90215 -13.868169,1.17129 -18.658349,0.96217 z"
             id="path1" /><path
             style="opacity:1;fill:#414141;fill-opacity:1;stroke:none;stroke-width:0.410484;stroke-linecap:square;stroke-linejoin:miter;stroke-dasharray:none;stroke-opacity:1"
             d="m -32.812439,529.50294 c -2.63507,-1.28017 -3.79227,-4.18798 -6.53124,-16.41164 -5.68843,-25.38662 -3.49971,-54.71526 5.81066,-77.86271 14.61791,-36.34303 40.4812301,-62.20635 76.82426,-76.82426 23.24908,-9.35125 51.9976,-11.50491 77.862709,-5.83297 19.71631,4.32356 39.41646,13.99633 56.1702,27.57954 3.04244,2.46668 5.69636,4.48487 5.8976,4.48487 0.20125,0 0.3659,-3.84878 0.3659,-8.55285 0,-4.70407 0.2006,-9.07561 0.44578,-9.71453 0.24518,-0.63892 1.37836,-1.64394 2.51818,-2.23336 1.65926,-0.85803 2.39301,-0.90091 3.68059,-0.21505 3.2354,1.72339 3.35548,2.37827 3.37943,18.43067 0.0223,14.96673 -0.30701,17.55018 -2.4169,18.959 -0.43429,0.28997 -8.24775,0.53217 -17.36325,0.53822 -15.15307,0.01 -16.67544,-0.1015 -17.76131,-1.30137 -1.57639,-1.74189 -1.51052,-5.3493 0.12469,-6.82915 1.07582,-0.9736 2.95131,-1.18767 10.40562,-1.18767 5.00129,0 9.09326,-0.20516 9.09326,-0.45593 0,-0.99305 -12.3385,-11.02612 -13.55974,-11.02612 -0.37028,0 -0.78088,-0.28038 -0.91245,-0.62307 -0.39984,-1.04148 -13.48472,-8.25755 -19.97399,-11.01528 -16.98992,-7.22019 -30.0257,-9.80021 -49.516379,-9.80021 -19.53662,0 -32.63269,2.61772 -49.93205,9.98069 -6.61663,2.81618 -19.06482,9.75485 -19.55833,10.90189 -0.13157,0.30578 -0.55247,0.55598 -0.93534,0.55598 -3.55352,0 -32.19518,28.66204 -32.19518,32.21808 0,0.37028 -0.26991,0.78087 -0.5998,0.91244 -1.1332,0.45195 -7.96978,12.7723 -10.87493,19.59794 -7.98351,18.75731 -10.46374,32.64683 -9.80626,54.91583 0.4015,13.59872 1.42072,20.3871 4.71297,31.39009 1.68561,5.63345 1.45081,7.02574 -1.53793,9.11913 -1.80872,1.26688 -1.82728,1.26835 -3.81677,0.3018 z"
             id="path2" /><path
             style="opacity:1;fill:#ffd54f;fill-opacity:1;stroke:none;stroke-width:0.410484;stroke-linecap:square;stroke-linejoin:miter;stroke-dasharray:none;stroke-opacity:1"
             d="m 75.584531,566.21309 c -18.13446,-3.98821 -30.4433,-10.64199 -43.09961,-23.2983 -16.63435,-16.63435 -24.7162999,-36.00721 -24.7162999,-59.24626 0,-13.05573 1.988,-22.53649 7.2229299,-34.44618 7.68662,-17.48738 24.80607,-34.60683 42.29345,-42.29345 19.06388,-8.37957 40.23715,-9.56109 60.280809,-3.3638 5.36536,1.65891 15.8385,6.7716 21.17005,10.33461 6.18994,4.13668 18.33931,16.18511 22.428,22.24165 9.52161,14.10434 14.52987,30.48634 14.52987,47.52717 0,13.51578 -2.40569,24.09588 -8.24552,36.26338 -4.45546,9.2831 -9.27256,15.93818 -17.12469,23.65861 -16.50683,16.22999 -36.08153,24.1474 -59.244879,23.96287 -6.38551,-0.0509 -11.73536,-0.51365 -15.49411,-1.3403 z m 29.735739,-14.0276 c 9.0885,-2.10892 19.44184,-6.39937 25.45714,-10.54951 25.77891,-17.78566 36.83413,-50.22727 27.21245,-79.85513 -3.1643,-9.74377 -10.69337,-21.64736 -18.00095,-28.45981 -13.92242,-12.97909 -29.65132,-19.2625 -48.218749,-19.2625 -19.4124,0 -35.53696,6.66756 -49.15543,20.32593 -14.0524,14.09356 -20.49353,29.58358 -20.49353,49.28406 0,19.70047 6.44113,35.1905 20.49353,49.28406 9.87275,9.90167 20.33066,15.61357 35.12269,19.1833 5.91388,1.42719 21.52507,1.45526 27.582849,0.0496 z"
             id="path3" /><path
             style="opacity:1;fill:#ffffff;fill-opacity:1;stroke:#ffffff;stroke-width:5.00063;stroke-linecap:square;stroke-linejoin:miter;stroke-dasharray:none;stroke-opacity:1"
             d="m 87.927882,537.41192 c -1.093245,-1.41477 -1.49874,-3.00804 -1.49874,-5.88883 0,-3.48428 -0.17369,-3.9493 -1.47507,-3.9493 -3.439945,0 -13.77524,-6.93073 -15.580542,-10.44812 -1.750918,-3.41146 0.71248,-7.2184 4.670899,-7.2184 0.797395,0 2.951138,1.32271 4.786085,2.93935 5.01417,4.41759 5.918761,4.75527 12.69593,4.73929 7.159992,-0.0169 10.223836,-1.43273 13.714206,-6.33751 2.84314,-3.99527 3.351,-7.77946 1.58841,-11.8356 -2.81267,-6.47259 -9.298717,-10.11645 -18.007207,-10.11645 -4.487656,0 -10.049774,-2.38203 -15.156044,-6.49074 -7.880522,-6.34097 -10.577386,-17.81791 -6.331731,-26.94578 2.986445,-6.42064 9.529263,-11.80173 17.829589,-14.66382 1.02809,-0.3545 1.265475,-1.31683 1.265475,-5.13004 0,-5.37019 1.191232,-7.13019 4.825978,-7.13019 3.243704,0 4.870216,2.29624 5.297828,7.47926 l 0.36156,4.38245 4.172312,1.72199 c 7.14522,2.94897 11.23916,6.9283 10.28296,9.99509 -1.10039,3.52924 -5.11754,4.81261 -7.98968,2.55251 -7.942183,-6.24972 -19.744648,-5.12893 -25.385131,2.41065 -3.103971,4.14903 -3.661662,7.38558 -2.02455,11.74923 2.182622,5.81766 7.75654,9.75019 13.864771,9.78192 10.96955,0.0571 21.76646,6.57152 25.91139,15.63415 3.77444,8.25252 1.75904,18.77004 -4.8787,25.45999 -3.2487,3.27426 -10.43263,7.47077 -12.789116,7.47077 -1.392018,0 -1.525816,0.40955 -1.525816,4.67059 0,3.58994 -0.305968,4.95245 -1.322419,5.88883 -2.061793,1.89938 -5.543285,1.55551 -7.302647,-0.72129 z"
             id="path4" /><path
             style="opacity:1;fill:#ffc107;fill-opacity:1;stroke:none;stroke-width:0.420297;stroke-linecap:square;stroke-linejoin:miter;stroke-dasharray:none;stroke-opacity:1"
             d="M 80.431785,553.44778 C 67.147009,551.50105 51.58864,543.55089 41.711631,533.6622 14.465584,506.38395 14.45925,460.95709 41.697715,433.68645 c 27.33967,-27.37198 72.434695,-27.34353 99.808825,0.063 15.15092,15.16883 22.33668,35.73554 20.07259,57.45087 -1.34872,12.93591 -5.87079,24.69669 -13.21716,34.37453 -16.30231,21.47607 -41.37591,31.76422 -67.930184,27.87299 z m 14.221097,-14.30664 c 2.570862,-1.33103 3.603741,-3.61924 3.603741,-7.98369 0,-3.06224 0.08136,-3.16863 3.120977,-4.07959 11.52475,-3.45401 19.95526,-16.62243 17.63199,-27.54111 -1.37598,-6.46673 -2.69148,-8.82236 -7.73065,-13.84285 -4.68343,-4.66611 -12.536616,-7.81073 -19.684246,-7.88209 -12.84185,-0.12824 -19.93687,-13.09777 -11.684803,-21.35959 5.803163,-5.81002 14.590182,-6.38762 22.027409,-1.44792 4.06207,2.69794 6.67327,2.79045 9.13707,0.32374 4.7492,-4.75483 -0.0348,-11.5679 -10.24751,-14.59393 l -2.937419,-0.87034 -0.370362,-4.63247 c -0.317081,-3.96598 -0.677702,-4.89715 -2.506455,-6.47204 -1.668319,-1.43673 -2.631911,-1.74026 -4.40036,-1.38615 -3.769997,0.75489 -5.097024,2.72726 -5.437578,8.08188 -0.294384,4.62867 -0.362393,4.76735 -2.576807,5.25429 -8.543627,1.87871 -16.254244,10.35447 -18.224673,20.0331 -0.827042,4.06244 -0.786765,5.25278 0.320785,9.48056 3.037016,11.59301 12.340412,18.58071 26.725126,20.07302 6.826761,0.70824 8.308375,1.31596 12.135023,4.97748 3.17377,3.03683 4.11604,6.95463 2.82613,11.7506 -0.97115,3.6109 -4.66273,6.95515 -9.498453,8.60481 -6.274793,2.14057 -10.290647,1.16542 -17.67562,-4.29203 -3.747729,-2.76953 -5.120877,-3.40064 -6.609147,-3.03759 -3.19888,0.78034 -4.800102,2.96321 -4.70956,6.42031 0.06888,2.63031 0.51072,3.47463 2.924769,5.58925 3.844984,3.36807 7.300571,5.50181 11.472234,7.08384 l 3.488168,1.32282 v 3.63276 c 0,3.03486 0.353285,3.98648 2.14656,5.78186 2.441536,2.44443 3.622591,2.62175 6.733661,1.01107 z"
             id="path5" /></g></g></g></g></svg>
